<?xml version="1.0" standalone="no"?>
<!DOCTYPE svg PUBLIC "-//W3C//DTD SVG 20010904//EN"
 "http://www.w3.org/TR/2001/REC-SVG-20010904/DTD/svg10.dtd">
<svg version="1.0" xmlns="http://www.w3.org/2000/svg"
 width="456" height="456" viewBox="0 0 456 456"
 preserveAspectRatio="xMidYMid meet">

<g transform="translate(0.000000,456) scale(0.100000,-0.100000)"
fill="#FFFFFF" stroke="none">
<path d="M1327 2460 c-94 -21 -224 -77 -309 -133 -148 -99 -284 -283 -341
-462 -29 -93 -31 -109 -31 -245 0 -164 17 -246 78 -370 50 -101 90 -156 175
-240 123 -122 239 -187 409 -231 253 -65 544 -9 752 146 147 108 292 320 325
473 l7 32 -110 0 -110 0 -42 -87 c-57 -119 -177 -240 -295 -297 -199 -97 -408
-99 -601 -5 -183 89 -323 264 -357 447 l-6 32 103 0 103 0 12 -39 c16 -55 83
-152 134 -193 156 -128 371 -147 542 -49 56 32 140 112 168 160 l18 31 -114 0
c-88 0 -117 -3 -127 -15 -20 -24 -118 -55 -175 -55 -63 0 -126 22 -174 61 -32
26 -71 76 -71 92 0 4 320 7 711 7 l711 0 -35 -62 c-19 -35 -51 -94 -72 -133
-21 -38 -45 -83 -55 -100 -10 -16 -33 -59 -52 -95 -105 -195 -172 -317 -184
-335 -8 -11 -14 -23 -14 -27 0 -14 724 -10 738 4 13 13 17 153 6 182 -5 14
-32 16 -200 16 -142 0 -194 3 -194 12 0 9 78 159 195 373 12 22 44 81 70 130
26 50 65 122 86 161 22 39 39 74 39 77 0 4 -142 7 -315 7 l-315 0 -6 28 c-58
259 -180 441 -385 578 -141 94 -272 134 -464 140 -114 3 -156 0 -228 -16z
m311 -195 c216 -35 398 -168 489 -356 22 -46 44 -97 47 -114 4 -16 9 -38 12
-47 5 -17 -21 -18 -450 -18 -251 0 -456 2 -456 5 0 18 34 66 68 97 44 40 135
78 186 78 49 0 122 -25 168 -57 36 -24 51 -28 139 -31 113 -5 118 -1 71 64
-63 86 -173 160 -273 183 -107 25 -242 7 -340 -46 -91 -50 -219 -211 -219
-278 0 -12 -19 -15 -105 -15 l-104 0 6 33 c21 109 86 222 183 319 96 94 218
159 345 182 106 18 124 19 233 1z"/>
<path d="M150 1945 l0 -215 -75 0 -75 0 0 -105 0 -105 75 0 75 0 0 -380 0
-380 110 0 110 0 0 380 0 380 105 0 105 0 0 105 0 105 -105 0 -105 0 0 215 0
215 -110 0 -110 0 0 -215z"/>
</g>
</svg>
