<?xml version="1.0" standalone="no"?>
<!DOCTYPE svg PUBLIC "-//W3C//DTD SVG 20010904//EN"
 "http://www.w3.org/TR/2001/REC-SVG-20010904/DTD/svg10.dtd">
<svg version="1.0" xmlns="http://www.w3.org/2000/svg"
 width="456" height="456" viewBox="0 0 456 456"
 preserveAspectRatio="xMidYMid meet">

<g transform="translate(0.000000,72.000000) scale(0.100000,-0.100000)"
fill="#FFFFFF" stroke="none">
<path d="M263 546 c-76 -36 -108 -88 -108 -176 0 -56 4 -73 28 -108 78 -118
261 -115 338 5 35 57 36 63 5 63 -17 0 -30 -11 -45 -35 -22 -38 -87 -75 -131
-75 -61 0 -150 71 -150 119 0 22 47 12 58 -14 16 -34 67 -58 110 -51 34 5 72
31 72 48 0 12 -37 10 -60 -4 -22 -14 -71 -2 -78 20 -3 9 33 12 157 12 89 0
161 -2 161 -5 0 -3 -6 -16 -14 -28 -7 -12 -27 -48 -45 -79 l-31 -58 85 0 c78
0 85 2 85 20 0 17 -7 20 -45 20 -25 0 -45 3 -45 8 0 4 18 40 40 80 22 40 40
78 40 83 0 6 -27 9 -67 8 l-66 -2 -22 50 c-24 53 -68 93 -124 112 -51 17 -91
13 -148 -13z m156 -41 c34 -17 81 -70 81 -91 0 -11 -20 -14 -100 -14 -102 0
-124 10 -75 32 19 8 31 8 50 0 32 -15 65 -16 65 -2 0 19 -54 45 -94 44 -32 -1
-46 -8 -73 -38 -29 -32 -73 -49 -73 -28 0 19 43 74 72 92 39 24 107 26 147 5z"/>
<path d="M40 445 c0 -38 -3 -45 -20 -45 -15 0 -20 -7 -20 -25 0 -18 5 -25 20
-25 19 0 20 -7 20 -90 0 -83 1 -90 20 -90 19 0 20 7 20 90 0 89 0 90 25 90 20
0 25 5 25 25 0 20 -5 25 -25 25 -23 0 -25 4 -25 45 0 38 -3 45 -20 45 -17 0
-20 -7 -20 -45z"/>
</g>
</svg>
